<svg width="17" height="18" viewBox="0 0 17 18" fill="none" xmlns="http://www.w3.org/2000/svg">
<path d="M0.520625 0.26001C0.292031 0.26001 0.140625 0.411416 0.140625 0.64001V1.78001C0.140625 1.89431 0.183672 1.96556 0.259375 2.04126L6.33938 8.50126C6.41508 8.57696 6.52492 8.62001 6.60063 8.62001H10.4006C10.5149 8.62001 10.5862 8.57696 10.6619 8.50126L16.7419 2.04126C16.8176 1.96556 16.8606 1.89431 16.8606 1.78001V0.64001C16.8606 0.411416 16.7092 0.26001 16.4806 0.26001H0.520625ZM6.22062 9.38001V15.08C6.22062 15.2314 6.29633 15.3487 6.41062 15.4244L10.2106 17.7044C10.2492 17.743 10.3249 17.74 10.4006 17.74C10.4763 17.74 10.5149 17.743 10.5906 17.7044C10.7049 17.6287 10.7806 17.5114 10.7806 17.36V9.38001H6.22062Z" fill="white"/>
</svg>
