<svg width="23" height="23" viewBox="0 0 23 23" fill="none" xmlns="http://www.w3.org/2000/svg">
<g clip-path="url(#clip0_268_854)">
<path d="M22.7619 10.2992C20.8921 5.78929 16.4714 2.875 11.4995 2.875C6.52769 2.875 2.1069 5.78929 0.237188 10.2992C-0.0790625 11.062 -0.0790625 11.937 0.237188 12.7008C2.1069 17.2107 6.52769 20.125 11.4995 20.125C16.4714 20.125 20.8921 17.2107 22.7619 12.7008C23.0781 11.938 23.0781 11.062 22.7619 10.2992ZM11.4995 15.3333C9.38544 15.3333 7.66619 13.6141 7.66619 11.5C7.66619 9.38592 9.38544 7.66667 11.4995 7.66667C13.6136 7.66667 15.3329 9.38592 15.3329 11.5C15.3329 13.6141 13.6136 15.3333 11.4995 15.3333Z" fill="#8E8E8E"/>
<line x1="1.06066" y1="0.93934" x2="21.0607" y2="20.9393" stroke="#8E8E8E" stroke-width="3"/>
</g>
<defs>
<clipPath id="clip0_268_854">
<rect width="23" height="23" fill="white"/>
</clipPath>
</defs>
</svg>
