<svg width="67" height="40" viewBox="0 0 67 40" fill="none" xmlns="http://www.w3.org/2000/svg">
<path d="M9.73964 0.5C7.56836 0.5 5.77979 2.26154 5.77979 4.4V35.6H0.5V36.7807C0.5 37.6049 1.09175 38.3168 1.91276 38.4793L6.36758 39.3553C6.85332 39.4515 7.35107 39.5 7.84737 39.5H59.1501C59.6464 39.5 60.1428 39.4515 60.6298 39.3553L65.0872 38.4793C65.9082 38.3181 66.5 37.6062 66.5 36.7807V35.6H61.2176V4.4C61.2176 2.26154 59.4291 0.5 57.2578 0.5H9.73964ZM9.73964 3.1H29.5389C29.5389 3.8176 30.1302 4.4 30.8588 4.4H36.1386C36.8672 4.4 37.4586 3.8176 37.4586 3.1H57.2578C58.0036 3.1 58.5777 3.66546 58.5777 4.4V35.6H8.41969V4.4C8.41969 3.66546 8.99383 3.1 9.73964 3.1Z" fill="white"/>
<path d="M32.9993 11.375C28.7765 11.375 25.3327 14.8188 25.3327 19.0417V20C24.2785 20 23.416 20.8625 23.416 21.9167V23.8333C23.416 24.8875 24.2785 25.75 25.3327 25.75H27.2493V20.9583V20V19.0417C27.2493 15.8547 29.8124 13.2917 32.9993 13.2917C36.1863 13.2917 38.7493 15.8547 38.7493 19.0417V20V20.9583V25.75V26.7083H34.8318C34.7328 26.4284 34.5496 26.186 34.3073 26.0144C34.0649 25.8428 33.7754 25.7504 33.4785 25.75C33.0973 25.75 32.7316 25.9015 32.462 26.171C32.1925 26.4406 32.041 26.8063 32.041 27.1875C32.0415 27.5506 32.1794 27.9001 32.4269 28.1657C32.6745 28.4313 33.0134 28.5934 33.3756 28.6194C33.4098 28.6231 33.4441 28.625 33.4785 28.625H38.7493C39.7969 28.625 40.666 27.7559 40.666 26.7083V25.75C41.7202 25.75 42.5827 24.8875 42.5827 23.8333V21.9167C42.5827 20.8625 41.7202 20 40.666 20V19.0417C40.666 14.8188 37.2222 11.375 32.9993 11.375Z" fill="white"/>
</svg>
