<svg width="31" height="30" viewBox="0 0 31 30" fill="none" xmlns="http://www.w3.org/2000/svg">
<path d="M15.115 0.280029C10.5275 0.280029 6.795 4.01253 6.795 8.60003C6.795 14.695 14.2875 24.5725 14.605 24.99L15.115 25.6525L15.625 24.99C15.9425 24.5725 23.435 14.695 23.435 8.60003C23.435 4.01253 19.7025 0.280029 15.115 0.280029ZM15.115 6.04003C16.53 6.04003 17.675 7.18503 17.675 8.60003C17.675 10.015 16.53 11.16 15.115 11.16C13.7 11.16 12.555 10.015 12.555 8.60003C12.555 7.18503 13.7 6.04003 15.115 6.04003ZM3.785 19.48L0.125 29.72H30.105L26.445 19.48H21.5475C21.2975 19.92 21.0475 20.3475 20.7975 20.76H25.545L28.285 28.44H1.945L4.685 20.76H9.4325C9.1825 20.3475 8.9325 19.92 8.6825 19.48H3.785Z" fill="#138117"/>
</svg>
