<svg width="17" height="18" viewBox="0 0 17 18" fill="none" xmlns="http://www.w3.org/2000/svg">
<path d="M0.520625 0.47876C0.292031 0.47876 0.140625 0.630166 0.140625 0.85876V1.99876C0.140625 2.11306 0.183672 2.18431 0.259375 2.26001L6.33938 8.72001C6.41508 8.79571 6.52492 8.83876 6.60063 8.83876H10.4006C10.5149 8.83876 10.5862 8.79571 10.6619 8.72001L16.7419 2.26001C16.8176 2.18431 16.8606 2.11306 16.8606 1.99876V0.85876C16.8606 0.630166 16.7092 0.47876 16.4806 0.47876H0.520625ZM6.22062 9.59876V15.2988C6.22062 15.4502 6.29633 15.5674 6.41062 15.6431L10.2106 17.9231C10.2492 17.9617 10.3249 17.9588 10.4006 17.9588C10.4763 17.9588 10.5149 17.9617 10.5906 17.9231C10.7049 17.8474 10.7806 17.7302 10.7806 17.5788V9.59876H6.22062Z" fill="#1569DF"/>
</svg>
